<?xml version="1.0" encoding="UTF-8"?>
<svg xmlns="http://www.w3.org/2000/svg" viewBox="0 0 1200 480" role="img" aria-labelledby="title description">
  <title id="title">Recorded Sign Counts</title>
  <desc id="description">Daily values from 2026-06-10 through 2026-10-09. The teal line uses the left axis and the orange line uses the right axis.</desc>
  <style>
    text { font-family: -apple-system, BlinkMacSystemFont, "Segoe UI", sans-serif; }
    .title { fill: #1E293B; font-size: 23px; font-weight: 700; }
    .subtitle { fill: #64748B; font-size: 13px; }
    .axis-label { fill: #64748B; font-size: 12px; }
    .grid { stroke: #D7DEE5; stroke-width: 1; }
    .week { stroke: #64748B; stroke-width: 1; stroke-dasharray: 4 4; opacity: 0.45; }
    .axis { stroke: #64748B; stroke-width: 1; }
    .legend { fill: #1E293B; font-size: 13px; }
    .value { font-size: 13px; font-weight: 700; }
  </style>
  <rect width="1200" height="480" fill="#FFFFFF"/>
  <text x="88" y="38" class="title">Recorded Sign Counts</text>
  <text x="88" y="61" class="subtitle">2026-06-10 to 2026-10-09</text>
  <line x1="797" y1="33" x2="821" y2="33" stroke="#0F766E" stroke-width="3" stroke-linecap="round"/>
  <text x="830" y="37" class="legend">Total records (left)</text>
  <line x1="977" y1="33" x2="1001" y2="33" stroke="#EA580C" stroke-width="3" stroke-linecap="round"/>
  <text x="1010" y="37" class="legend">Daily change (right)</text>
  <line x1="88" y1="392" x2="1112" y2="392" class="grid"/>
<line x1="88" y1="318" x2="1112" y2="318" class="grid"/>
<line x1="88" y1="244" x2="1112" y2="244" class="grid"/>
<line x1="88" y1="170" x2="1112" y2="170" class="grid"/>
<line x1="88" y1="96" x2="1112" y2="96" class="grid"/>
  <line x1="138.77685950413223" y1="96" x2="138.77685950413223" y2="392" class="week"/>
<line x1="198.01652892561984" y1="96" x2="198.01652892561984" y2="392" class="week"/>
<line x1="257.25619834710744" y1="96" x2="257.25619834710744" y2="392" class="week"/>
<line x1="316.4958677685951" y1="96" x2="316.4958677685951" y2="392" class="week"/>
<line x1="375.73553719008265" y1="96" x2="375.73553719008265" y2="392" class="week"/>
<line x1="434.97520661157023" y1="96" x2="434.97520661157023" y2="392" class="week"/>
<line x1="494.21487603305786" y1="96" x2="494.21487603305786" y2="392" class="week"/>
<line x1="553.4545454545455" y1="96" x2="553.4545454545455" y2="392" class="week"/>
<line x1="612.694214876033" y1="96" x2="612.694214876033" y2="392" class="week"/>
<line x1="671.9338842975206" y1="96" x2="671.9338842975206" y2="392" class="week"/>
<line x1="731.1735537190083" y1="96" x2="731.1735537190083" y2="392" class="week"/>
<line x1="790.4132231404959" y1="96" x2="790.4132231404959" y2="392" class="week"/>
<line x1="849.6528925619834" y1="96" x2="849.6528925619834" y2="392" class="week"/>
<line x1="908.8925619834711" y1="96" x2="908.8925619834711" y2="392" class="week"/>
<line x1="968.1322314049587" y1="96" x2="968.1322314049587" y2="392" class="week"/>
<line x1="1027.3719008264463" y1="96" x2="1027.3719008264463" y2="392" class="week"/>
<line x1="1086.6115702479337" y1="96" x2="1086.6115702479337" y2="392" class="week"/>
  <line x1="88" y1="96" x2="88" y2="392" class="axis"/>
  <line x1="1112" y1="96" x2="1112" y2="392" class="axis"/>
  <line x1="88" y1="392" x2="1112" y2="392" class="axis"/>
  <text x="74" y="396" text-anchor="end" class="axis-label">21,582</text>
<text x="74" y="322" text-anchor="end" class="axis-label">33,221</text>
<text x="74" y="248" text-anchor="end" class="axis-label">44,861</text>
<text x="74" y="174" text-anchor="end" class="axis-label">56,501</text>
<text x="74" y="100" text-anchor="end" class="axis-label">68,141</text>
  <text x="1126" y="396" text-anchor="start" class="axis-label">0</text>
<text x="1126" y="322" text-anchor="start" class="axis-label">508</text>
<text x="1126" y="248" text-anchor="start" class="axis-label">1,016</text>
<text x="1126" y="174" text-anchor="start" class="axis-label">1,524</text>
<text x="1126" y="100" text-anchor="start" class="axis-label">2,031</text>
  <line x1="88" y1="392" x2="88" y2="397" class="axis"/>
      <text x="88" y="419" text-anchor="middle" class="axis-label">06/10</text>
<line x1="291.10743801652893" y1="392" x2="291.10743801652893" y2="397" class="axis"/>
      <text x="291.10743801652893" y="419" text-anchor="middle" class="axis-label">07/04</text>
<line x1="494.21487603305786" y1="392" x2="494.21487603305786" y2="397" class="axis"/>
      <text x="494.21487603305786" y="419" text-anchor="middle" class="axis-label">07/28</text>
<line x1="705.7851239669421" y1="392" x2="705.7851239669421" y2="397" class="axis"/>
      <text x="705.7851239669421" y="419" text-anchor="middle" class="axis-label">08/22</text>
<line x1="908.8925619834711" y1="392" x2="908.8925619834711" y2="397" class="axis"/>
      <text x="908.8925619834711" y="419" text-anchor="middle" class="axis-label">09/15</text>
<line x1="1112" y1="392" x2="1112" y2="397" class="axis"/>
      <text x="1112" y="419" text-anchor="middle" class="axis-label">10/09</text>
  <path d="M 88.00 357.70 C 92.23 357.70, 92.23 352.94, 96.46 352.94 C 100.69 352.94, 100.69 345.87, 104.93 345.87 C 109.16 345.87, 109.16 340.18, 113.39 340.18 C 117.62 340.18, 117.62 337.66, 121.85 337.66 C 126.08 337.66, 126.08 336.18, 130.31 336.18 C 134.55 336.18, 134.55 328.87, 138.78 328.87 C 143.01 328.87, 143.01 322.23, 147.24 322.23 C 151.47 322.23, 151.47 316.04, 155.70 316.04 C 159.93 316.04, 159.93 311.40, 164.17 311.40 C 168.40 311.40, 168.40 311.03, 172.63 311.03 C 176.86 311.03, 176.86 310.86, 181.09 310.86 C 185.32 310.86, 185.32 310.22, 189.55 310.22 C 193.79 310.22, 193.79 307.03, 198.02 307.03 C 202.25 307.03, 202.25 303.64, 206.48 303.64 C 210.71 303.64, 210.71 299.99, 214.94 299.99 C 219.17 299.99, 219.17 296.39, 223.40 296.39 C 227.64 296.39, 227.64 294.51, 231.87 294.51 C 236.10 294.51, 236.10 293.89, 240.33 293.89 C 244.56 293.89, 244.56 292.18, 248.79 292.18 C 253.02 292.18, 253.02 290.11, 257.26 290.11 C 261.49 290.11, 261.49 288.22, 265.72 288.22 C 269.95 288.22, 269.95 286.49, 274.18 286.49 C 278.41 286.49, 278.41 285.04, 282.64 285.04 C 286.88 285.04, 286.88 282.53, 291.11 282.53 C 295.34 282.53, 295.34 281.87, 299.57 281.87 C 303.80 281.87, 303.80 281.38, 308.03 281.38 C 312.26 281.38, 312.26 280.62, 316.50 280.62 C 320.73 280.62, 320.73 279.80, 324.96 279.80 C 329.19 279.80, 329.19 278.95, 333.42 278.95 C 337.65 278.95, 337.65 278.21, 341.88 278.21 C 346.12 278.21, 346.12 277.67, 350.35 277.67 C 354.58 277.67, 354.58 277.33, 358.81 277.33 C 363.04 277.33, 363.04 277.09, 367.27 277.09 C 371.50 277.09, 371.50 276.81, 375.74 276.81 C 379.97 276.81, 379.97 276.55, 384.20 276.55 C 388.43 276.55, 388.43 276.11, 392.66 276.11 C 396.89 276.11, 396.89 275.92, 401.12 275.92 C 405.36 275.92, 405.36 275.59, 409.59 275.59 C 413.82 275.59, 413.82 275.41, 418.05 275.41 C 422.28 275.41, 422.28 275.25, 426.51 275.25 C 430.74 275.25, 430.74 275.11, 434.98 275.11 C 439.21 275.11, 439.21 274.84, 443.44 274.84 C 447.67 274.84, 447.67 274.71, 451.90 274.71 C 456.13 274.71, 456.13 274.43, 460.36 274.43 C 464.60 274.43, 464.60 274.31, 468.83 274.31 C 473.06 274.31, 473.06 274.16, 477.29 274.16 C 481.52 274.16, 481.52 273.84, 485.75 273.84 C 489.98 273.84, 489.98 273.77, 494.21 273.77 C 498.45 273.77, 498.45 273.70, 502.68 273.70 C 506.91 273.70, 506.91 272.95, 511.14 272.95 C 515.37 272.95, 515.37 272.47, 519.60 272.47 C 523.83 272.47, 523.83 272.39, 528.07 272.39 C 532.30 272.39, 532.30 271.97, 536.53 271.97 C 540.76 271.97, 540.76 271.85, 544.99 271.85 C 549.22 271.85, 549.22 271.79, 553.45 271.79 C 557.69 271.79, 557.69 271.61, 561.92 271.61 C 566.15 271.61, 566.15 271.47, 570.38 271.47 C 574.61 271.47, 574.61 271.30, 578.84 271.30 C 583.07 271.30, 583.07 271.19, 587.31 271.19 C 591.54 271.19, 591.54 270.98, 595.77 270.98 C 600.00 270.98, 600.00 270.82, 604.23 270.82 C 608.46 270.82, 608.46 270.75, 612.69 270.75 C 616.93 270.75, 616.93 270.54, 621.16 270.54 C 625.39 270.54, 625.39 270.48, 629.62 270.48 C 633.85 270.48, 633.85 270.40, 638.08 270.40 C 642.31 270.40, 642.31 270.24, 646.55 270.24 C 650.78 270.24, 650.78 270.04, 655.01 270.04 C 659.24 270.04, 659.24 269.87, 663.47 269.87 C 667.70 269.87, 667.70 269.77, 671.93 269.77 C 676.17 269.77, 676.17 269.61, 680.40 269.61 C 684.63 269.61, 684.63 268.87, 688.86 268.87 C 693.09 268.87, 693.09 268.60, 697.32 268.60 C 701.55 268.60, 701.55 268.39, 705.79 268.39 C 710.02 268.39, 710.02 267.96, 714.25 267.96 C 718.48 267.96, 718.48 267.85, 722.71 267.85 C 726.94 267.85, 726.94 267.43, 731.17 267.43 C 735.40 267.43, 735.40 267.00, 739.64 267.00 C 743.87 267.00, 743.87 266.88, 748.10 266.88 C 752.33 266.88, 752.33 266.58, 756.56 266.58 C 760.79 266.58, 760.79 266.35, 765.02 266.35 C 769.26 266.35, 769.26 266.25, 773.49 266.25 C 777.72 266.25, 777.72 265.61, 781.95 265.61 C 786.18 265.61, 786.18 263.30, 790.41 263.30 C 794.64 263.30, 794.64 261.12, 798.88 261.12 C 803.11 261.12, 803.11 257.37, 807.34 257.37 C 811.57 257.37, 811.57 255.91, 815.80 255.91 C 820.03 255.91, 820.03 254.17, 824.26 254.17 C 828.50 254.17, 828.50 253.33, 832.73 253.33 C 836.96 253.33, 836.96 252.50, 841.19 252.50 C 845.42 252.50, 845.42 246.67, 849.65 246.67 C 853.88 246.67, 853.88 238.89, 858.12 238.89 C 862.35 238.89, 862.35 232.81, 866.58 232.81 C 870.81 232.81, 870.81 227.80, 875.04 227.80 C 879.27 227.80, 879.27 221.60, 883.50 221.60 C 887.74 221.60, 887.74 220.75, 891.97 220.75 C 896.20 220.75, 896.20 219.42, 900.43 219.42 C 904.66 219.42, 904.66 212.70, 908.89 212.70 C 913.12 212.70, 913.12 204.29, 917.36 204.29 C 921.59 204.29, 921.59 196.66, 925.82 196.66 C 930.05 196.66, 930.05 189.26, 934.28 189.26 C 938.51 189.26, 938.51 182.66, 942.74 182.66 C 946.98 182.66, 946.98 181.40, 951.21 181.40 C 955.44 181.40, 955.44 175.80, 959.67 175.80 C 963.90 175.80, 963.90 166.58, 968.13 166.58 C 972.36 166.58, 972.36 159.50, 976.60 159.50 C 980.83 159.50, 980.83 152.83, 985.06 152.83 C 989.29 152.83, 989.29 147.37, 993.52 147.37 C 997.75 147.37, 997.75 146.45, 1001.98 146.45 C 1006.21 146.45, 1006.21 145.92, 1010.45 145.92 C 1014.68 145.92, 1014.68 144.63, 1018.91 144.63 C 1023.14 144.63, 1023.14 138.07, 1027.37 138.07 C 1031.60 138.07, 1031.60 132.20, 1035.83 132.20 C 1040.07 132.20, 1040.07 127.82, 1044.30 127.82 C 1048.53 127.82, 1048.53 127.32, 1052.76 127.32 C 1056.99 127.32, 1056.99 127.04, 1061.22 127.04 C 1065.45 127.04, 1065.45 126.62, 1069.69 126.62 C 1073.92 126.62, 1073.92 126.39, 1078.15 126.39 C 1082.38 126.39, 1082.38 125.96, 1086.61 125.96 C 1090.84 125.96, 1090.84 125.24, 1095.07 125.24 C 1099.31 125.24, 1099.31 123.05, 1103.54 123.05 C 1107.77 123.05, 1107.77 116.63, 1112.00 116.63" fill="none" stroke="#0F766E" stroke-width="3" stroke-linecap="round" stroke-linejoin="round"/>
  <path d="M 96.46 282.86 C 100.69 282.86, 100.69 230.11, 104.93 230.11 C 109.16 230.11, 109.16 261.44, 113.39 261.44 C 117.62 261.44, 117.62 334.30, 121.85 334.30 C 126.08 334.30, 126.08 358.05, 130.31 358.05 C 134.55 358.05, 134.55 224.43, 138.78 224.43 C 143.01 224.43, 143.01 239.88, 147.24 239.88 C 151.47 239.88, 151.47 250.08, 155.70 250.08 C 159.93 250.08, 159.93 285.78, 164.17 285.78 C 168.40 285.78, 168.40 383.55, 172.63 383.55 C 176.86 383.55, 176.86 388.07, 181.09 388.07 C 185.32 388.07, 185.32 377.28, 189.55 377.28 C 193.79 377.28, 193.79 318.85, 198.02 318.85 C 202.25 318.85, 202.25 314.34, 206.48 314.34 C 210.71 314.34, 210.71 308.36, 214.94 308.36 C 219.17 308.36, 219.17 309.53, 223.40 309.53 C 227.64 309.53, 227.64 348.87, 231.87 348.87 C 236.10 348.87, 236.10 377.87, 240.33 377.87 C 244.56 377.87, 244.56 352.80, 248.79 352.80 C 253.02 352.80, 253.02 344.35, 257.26 344.35 C 261.49 344.35, 261.49 348.72, 265.72 348.72 C 269.95 348.72, 269.95 352.37, 274.18 352.37 C 278.41 352.37, 278.41 358.78, 282.64 358.78 C 286.88 358.78, 286.88 334.59, 291.11 334.59 C 295.34 334.59, 295.34 376.70, 299.57 376.70 C 303.80 376.70, 303.80 380.93, 308.03 380.93 C 312.26 380.93, 312.26 374.51, 316.50 374.51 C 320.73 374.51, 320.73 373.20, 324.96 373.20 C 329.19 373.20, 329.19 372.47, 333.42 372.47 C 337.65 372.47, 337.65 375.10, 341.88 375.10 C 346.12 375.10, 346.12 379.61, 350.35 379.61 C 354.58 379.61, 354.58 384.13, 358.81 384.13 C 363.04 384.13, 363.04 386.46, 367.27 386.46 C 371.50 386.46, 371.50 385.73, 375.74 385.73 C 379.97 385.73, 379.97 385.88, 384.20 385.88 C 388.43 385.88, 388.43 382.09, 392.66 382.09 C 396.89 382.09, 396.89 387.48, 401.12 387.48 C 405.36 387.48, 405.36 384.57, 409.59 384.57 C 413.82 384.57, 413.82 387.92, 418.05 387.92 C 422.28 387.92, 422.28 388.36, 426.51 388.36 C 430.74 388.36, 430.74 388.79, 434.98 388.79 C 439.21 388.79, 439.21 385.59, 443.44 385.59 C 447.67 385.59, 447.67 389.23, 451.90 389.23 C 456.13 389.23, 456.13 385.59, 460.36 385.59 C 464.60 385.59, 464.60 389.09, 468.83 389.09 C 473.06 389.09, 473.06 388.65, 477.29 388.65 C 481.52 388.65, 481.52 384.57, 485.75 384.57 C 489.98 384.57, 489.98 390.40, 494.21 390.40 C 498.45 390.40, 498.45 390.40, 502.68 390.40 C 506.91 390.40, 506.91 374.81, 511.14 374.81 C 515.37 374.81, 515.37 381.07, 519.60 381.07 C 523.83 381.07, 523.83 390.25, 528.07 390.25 C 532.30 390.25, 532.30 382.24, 536.53 382.24 C 540.76 382.24, 540.76 389.23, 544.99 389.23 C 549.22 389.23, 549.22 390.69, 553.45 390.69 C 557.69 390.69, 557.69 387.92, 561.92 387.92 C 566.15 387.92, 566.15 388.65, 570.38 388.65 C 574.61 388.65, 574.61 388.21, 578.84 388.21 C 583.07 388.21, 583.07 389.52, 587.31 389.52 C 591.54 389.52, 591.54 387.19, 595.77 387.19 C 600.00 387.19, 600.00 388.36, 604.23 388.36 C 608.46 388.36, 608.46 390.25, 612.69 390.25 C 616.93 390.25, 616.93 387.19, 621.16 387.19 C 625.39 387.19, 625.39 390.69, 629.62 390.69 C 633.85 390.69, 633.85 390.25, 638.08 390.25 C 642.31 390.25, 642.31 388.21, 646.55 388.21 C 650.78 388.21, 650.78 387.48, 655.01 387.48 C 659.24 387.48, 659.24 388.07, 663.47 388.07 C 667.70 388.07, 667.70 389.81, 671.93 389.81 C 676.17 389.81, 676.17 388.21, 680.40 388.21 C 684.63 388.21, 684.63 375.10, 688.86 375.10 C 693.09 375.10, 693.09 385.73, 697.32 385.73 C 701.55 385.73, 701.55 387.34, 705.79 387.34 C 710.02 387.34, 710.02 382.09, 714.25 382.09 C 718.48 382.09, 718.48 389.52, 722.71 389.52 C 726.94 389.52, 726.94 382.24, 731.17 382.24 C 735.40 382.24, 735.40 382.09, 739.64 382.09 C 743.87 382.09, 743.87 389.38, 748.10 389.38 C 752.33 389.38, 752.33 385.15, 756.56 385.15 C 760.79 385.15, 760.79 386.75, 765.02 386.75 C 769.26 386.75, 769.26 389.67, 773.49 389.67 C 777.72 389.67, 777.72 377.28, 781.95 377.28 C 786.18 377.28, 786.18 338.96, 790.41 338.96 C 794.64 338.96, 794.64 342.17, 798.88 342.17 C 803.11 342.17, 803.11 306.03, 807.34 306.03 C 811.57 306.03, 811.57 358.49, 815.80 358.49 C 820.03 358.49, 820.03 352.07, 824.26 352.07 C 828.50 352.07, 828.50 372.91, 832.73 372.91 C 836.96 372.91, 836.96 372.91, 841.19 372.91 C 845.42 372.91, 845.42 258.24, 849.65 258.24 C 853.88 258.24, 853.88 213.79, 858.12 213.79 C 862.35 213.79, 862.35 252.55, 866.58 252.55 C 870.81 252.55, 870.81 277.32, 875.04 277.32 C 879.27 277.32, 879.27 249.78, 883.50 249.78 C 887.74 249.78, 887.74 372.62, 891.97 372.62 C 896.20 372.62, 896.20 361.55, 900.43 361.55 C 904.66 361.55, 904.66 237.98, 908.89 237.98 C 913.12 237.98, 913.12 199.22, 917.36 199.22 C 921.59 199.22, 921.59 217.15, 925.82 217.15 C 930.05 217.15, 930.05 222.39, 934.28 222.39 C 938.51 222.39, 938.51 240.75, 942.74 240.75 C 946.98 240.75, 946.98 363.00, 951.21 363.00 C 955.44 363.00, 955.44 263.77, 959.67 263.77 C 963.90 263.77, 963.90 180.57, 968.13 180.57 C 972.36 180.57, 972.36 229.82, 976.60 229.82 C 980.83 229.82, 980.83 239.00, 985.06 239.00 C 989.29 239.00, 989.29 266.98, 993.52 266.98 C 997.75 266.98, 997.75 370.73, 1001.98 370.73 C 1006.21 370.73, 1006.21 379.91, 1010.45 379.91 C 1014.68 379.91, 1014.68 362.57, 1018.91 362.57 C 1023.14 362.57, 1023.14 241.48, 1027.37 241.48 C 1031.60 241.48, 1031.60 257.51, 1035.83 257.51 C 1040.07 257.51, 1040.07 291.75, 1044.30 291.75 C 1048.53 291.75, 1048.53 380.34, 1052.76 380.34 C 1056.99 380.34, 1056.99 385.73, 1061.22 385.73 C 1065.45 385.73, 1065.45 382.38, 1069.69 382.38 C 1073.92 382.38, 1073.92 386.61, 1078.15 386.61 C 1082.38 386.61, 1082.38 382.24, 1086.61 382.24 C 1090.84 382.24, 1090.84 375.39, 1095.07 375.39 C 1099.31 375.39, 1099.31 341.87, 1103.54 341.87 C 1107.77 341.87, 1107.77 244.83, 1112.00 244.83" fill="none" stroke="#EA580C" stroke-width="3" stroke-linecap="round" stroke-linejoin="round"/>
  <circle cx="968.1322314049587" cy="180.57142857142856" r="5" fill="#EA580C" stroke="#FFFFFF" stroke-width="2"/>
  <rect x="942.1322314049587" y="147.57142857142856" width="52" height="22" rx="3" fill="#FFFFFF" stroke="#EA580C" stroke-width="1"/>
  <text x="968.1322314049587" y="163.57142857142856" text-anchor="middle" class="value" fill="#EA580C">1,451</text>
  <circle cx="1112" cy="116.62880805512123" r="4.5" fill="#0F766E" stroke="#FFFFFF" stroke-width="2"/>
  <circle cx="1112" cy="244.83056020478486" r="4.5" fill="#EA580C" stroke="#FFFFFF" stroke-width="2"/>
  <text x="88" y="462" class="subtitle">Latest snapshot</text>
  <text x="188" y="462" class="value" fill="#0F766E">64,896</text>
  <text x="278" y="462" class="subtitle">Daily change</text>
  <text x="373" y="462" class="value" fill="#EA580C">+1,010</text>
  <text x="468" y="462" class="subtitle">Update date: 2026-10-09</text>
</svg>