<?xml version="1.0" encoding="UTF-8"?>
<svg xmlns="http://www.w3.org/2000/svg" viewBox="0 0 1200 480" role="img" aria-labelledby="title description">
  <title id="title">Analyser User Counts</title>
  <desc id="description">Daily values from 2026-06-10 through 2026-10-09. The teal line uses the left axis and the orange line uses the right axis.</desc>
  <style>
    text { font-family: -apple-system, BlinkMacSystemFont, "Segoe UI", sans-serif; }
    .title { fill: #1E293B; font-size: 23px; font-weight: 700; }
    .subtitle { fill: #64748B; font-size: 13px; }
    .axis-label { fill: #64748B; font-size: 12px; }
    .grid { stroke: #D7DEE5; stroke-width: 1; }
    .week { stroke: #64748B; stroke-width: 1; stroke-dasharray: 4 4; opacity: 0.45; }
    .axis { stroke: #64748B; stroke-width: 1; }
    .legend { fill: #1E293B; font-size: 13px; }
    .value { font-size: 13px; font-weight: 700; }
  </style>
  <rect width="1200" height="480" fill="#FFFFFF"/>
  <text x="88" y="38" class="title">Analyser User Counts</text>
  <text x="88" y="61" class="subtitle">2026-06-10 to 2026-10-09</text>
  <line x1="797" y1="33" x2="821" y2="33" stroke="#0F766E" stroke-width="3" stroke-linecap="round"/>
  <text x="830" y="37" class="legend">Users (left)</text>
  <line x1="977" y1="33" x2="1001" y2="33" stroke="#EA580C" stroke-width="3" stroke-linecap="round"/>
  <text x="1010" y="37" class="legend">Daily change (right)</text>
  <line x1="88" y1="392" x2="1112" y2="392" class="grid"/>
<line x1="88" y1="318" x2="1112" y2="318" class="grid"/>
<line x1="88" y1="244" x2="1112" y2="244" class="grid"/>
<line x1="88" y1="170" x2="1112" y2="170" class="grid"/>
<line x1="88" y1="96" x2="1112" y2="96" class="grid"/>
  <line x1="138.77685950413223" y1="96" x2="138.77685950413223" y2="392" class="week"/>
<line x1="198.01652892561984" y1="96" x2="198.01652892561984" y2="392" class="week"/>
<line x1="257.25619834710744" y1="96" x2="257.25619834710744" y2="392" class="week"/>
<line x1="316.4958677685951" y1="96" x2="316.4958677685951" y2="392" class="week"/>
<line x1="375.73553719008265" y1="96" x2="375.73553719008265" y2="392" class="week"/>
<line x1="434.97520661157023" y1="96" x2="434.97520661157023" y2="392" class="week"/>
<line x1="494.21487603305786" y1="96" x2="494.21487603305786" y2="392" class="week"/>
<line x1="553.4545454545455" y1="96" x2="553.4545454545455" y2="392" class="week"/>
<line x1="612.694214876033" y1="96" x2="612.694214876033" y2="392" class="week"/>
<line x1="671.9338842975206" y1="96" x2="671.9338842975206" y2="392" class="week"/>
<line x1="731.1735537190083" y1="96" x2="731.1735537190083" y2="392" class="week"/>
<line x1="790.4132231404959" y1="96" x2="790.4132231404959" y2="392" class="week"/>
<line x1="849.6528925619834" y1="96" x2="849.6528925619834" y2="392" class="week"/>
<line x1="908.8925619834711" y1="96" x2="908.8925619834711" y2="392" class="week"/>
<line x1="968.1322314049587" y1="96" x2="968.1322314049587" y2="392" class="week"/>
<line x1="1027.3719008264463" y1="96" x2="1027.3719008264463" y2="392" class="week"/>
<line x1="1086.6115702479337" y1="96" x2="1086.6115702479337" y2="392" class="week"/>
  <line x1="88" y1="96" x2="88" y2="392" class="axis"/>
  <line x1="1112" y1="96" x2="1112" y2="392" class="axis"/>
  <line x1="88" y1="392" x2="1112" y2="392" class="axis"/>
  <text x="74" y="396" text-anchor="end" class="axis-label">942</text>
<text x="74" y="322" text-anchor="end" class="axis-label">1,936</text>
<text x="74" y="248" text-anchor="end" class="axis-label">2,930</text>
<text x="74" y="174" text-anchor="end" class="axis-label">3,923</text>
<text x="74" y="100" text-anchor="end" class="axis-label">4,917</text>
  <text x="1126" y="396" text-anchor="start" class="axis-label">0</text>
<text x="1126" y="322" text-anchor="start" class="axis-label">46</text>
<text x="1126" y="248" text-anchor="start" class="axis-label">92</text>
<text x="1126" y="174" text-anchor="start" class="axis-label">138</text>
<text x="1126" y="100" text-anchor="start" class="axis-label">183</text>
  <line x1="88" y1="392" x2="88" y2="397" class="axis"/>
      <text x="88" y="419" text-anchor="middle" class="axis-label">06/10</text>
<line x1="291.10743801652893" y1="392" x2="291.10743801652893" y2="397" class="axis"/>
      <text x="291.10743801652893" y="419" text-anchor="middle" class="axis-label">07/04</text>
<line x1="494.21487603305786" y1="392" x2="494.21487603305786" y2="397" class="axis"/>
      <text x="494.21487603305786" y="419" text-anchor="middle" class="axis-label">07/28</text>
<line x1="705.7851239669421" y1="392" x2="705.7851239669421" y2="397" class="axis"/>
      <text x="705.7851239669421" y="419" text-anchor="middle" class="axis-label">08/22</text>
<line x1="908.8925619834711" y1="392" x2="908.8925619834711" y2="397" class="axis"/>
      <text x="908.8925619834711" y="419" text-anchor="middle" class="axis-label">09/15</text>
<line x1="1112" y1="392" x2="1112" y2="397" class="axis"/>
      <text x="1112" y="419" text-anchor="middle" class="axis-label">10/09</text>
  <path d="M 88.00 374.45 C 92.23 374.45, 92.23 368.35, 96.46 368.35 C 100.69 368.35, 100.69 360.90, 104.93 360.90 C 109.16 360.90, 109.16 353.75, 113.39 353.75 C 117.62 353.75, 117.62 353.23, 121.85 353.23 C 126.08 353.23, 126.08 351.44, 130.31 351.44 C 134.55 351.44, 134.55 345.49, 138.78 345.49 C 143.01 345.49, 143.01 340.42, 147.24 340.42 C 151.47 340.42, 151.47 335.13, 155.70 335.13 C 159.93 335.13, 159.93 332.01, 164.17 332.01 C 168.40 332.01, 168.40 331.26, 172.63 331.26 C 176.86 331.26, 176.86 330.67, 181.09 330.67 C 185.32 330.67, 185.32 329.62, 189.55 329.62 C 193.79 329.62, 193.79 326.12, 198.02 326.12 C 202.25 326.12, 202.25 323.37, 206.48 323.37 C 210.71 323.37, 210.71 320.69, 214.94 320.69 C 219.17 320.69, 219.17 318.23, 223.40 318.23 C 227.64 318.23, 227.64 316.81, 231.87 316.81 C 236.10 316.81, 236.10 316.07, 240.33 316.07 C 244.56 316.07, 244.56 315.47, 248.79 315.47 C 253.02 315.47, 253.02 314.21, 257.26 314.21 C 261.49 314.21, 261.49 313.02, 265.72 313.02 C 269.95 313.02, 269.95 311.45, 274.18 311.45 C 278.41 311.45, 278.41 310.86, 282.64 310.86 C 286.88 310.86, 286.88 309.67, 291.11 309.67 C 295.34 309.67, 295.34 309.29, 299.57 309.29 C 303.80 309.29, 303.80 308.55, 308.03 308.55 C 312.26 308.55, 312.26 307.73, 316.50 307.73 C 320.73 307.73, 320.73 307.06, 324.96 307.06 C 329.19 307.06, 329.19 306.02, 333.42 306.02 C 337.65 306.02, 337.65 305.57, 341.88 305.57 C 346.12 305.57, 346.12 305.12, 350.35 305.12 C 354.58 305.12, 354.58 304.75, 358.81 304.75 C 363.04 304.75, 363.04 304.53, 367.27 304.53 C 371.50 304.53, 371.50 304.16, 375.74 304.16 C 379.97 304.16, 379.97 303.86, 384.20 303.86 C 388.43 303.86, 388.43 303.71, 392.66 303.71 C 396.89 303.71, 396.89 303.56, 401.12 303.56 C 405.36 303.56, 405.36 303.19, 409.59 303.19 C 413.82 303.19, 413.82 302.89, 418.05 302.89 C 422.28 302.89, 422.28 302.37, 426.51 302.37 C 430.74 302.37, 430.74 302.14, 434.98 302.14 C 439.21 302.14, 439.21 301.62, 443.44 301.62 C 447.67 301.62, 447.67 301.33, 451.90 301.33 C 456.13 301.33, 456.13 300.73, 460.36 300.73 C 464.60 300.73, 464.60 300.43, 468.83 300.43 C 473.06 300.43, 473.06 300.43, 477.29 300.43 C 481.52 300.43, 481.52 300.36, 485.75 300.36 C 489.98 300.36, 489.98 300.36, 494.21 300.36 C 498.45 300.36, 498.45 300.13, 502.68 300.13 C 506.91 300.13, 506.91 299.84, 511.14 299.84 C 515.37 299.84, 515.37 299.39, 519.60 299.39 C 523.83 299.39, 523.83 299.09, 528.07 299.09 C 532.30 299.09, 532.30 298.72, 536.53 298.72 C 540.76 298.72, 540.76 298.57, 544.99 298.57 C 549.22 298.57, 549.22 298.42, 553.45 298.42 C 557.69 298.42, 557.69 298.05, 561.92 298.05 C 566.15 298.05, 566.15 297.97, 570.38 297.97 C 574.61 297.97, 574.61 297.75, 578.84 297.75 C 583.07 297.75, 583.07 297.45, 587.31 297.45 C 591.54 297.45, 591.54 297.38, 595.77 297.38 C 600.00 297.38, 600.00 297.30, 604.23 297.30 C 608.46 297.30, 608.46 297.30, 612.69 297.30 C 616.93 297.30, 616.93 297.15, 621.16 297.15 C 625.39 297.15, 625.39 297.01, 629.62 297.01 C 633.85 297.01, 633.85 296.48, 638.08 296.48 C 642.31 296.48, 642.31 296.34, 646.55 296.34 C 650.78 296.34, 650.78 296.19, 655.01 296.19 C 659.24 296.19, 659.24 296.04, 663.47 296.04 C 667.70 296.04, 667.70 295.96, 671.93 295.96 C 676.17 295.96, 676.17 295.67, 680.40 295.67 C 684.63 295.67, 684.63 295.44, 688.86 295.44 C 693.09 295.44, 693.09 295.22, 697.32 295.22 C 701.55 295.22, 701.55 295.07, 705.79 295.07 C 710.02 295.07, 710.02 294.47, 714.25 294.47 C 718.48 294.47, 718.48 294.47, 722.71 294.47 C 726.94 294.47, 726.94 294.03, 731.17 294.03 C 735.40 294.03, 735.40 293.58, 739.64 293.58 C 743.87 293.58, 743.87 292.98, 748.10 292.98 C 752.33 292.98, 752.33 292.24, 756.56 292.24 C 760.79 292.24, 760.79 291.79, 765.02 291.79 C 769.26 291.79, 769.26 291.42, 773.49 291.42 C 777.72 291.42, 777.72 290.45, 781.95 290.45 C 786.18 290.45, 786.18 287.10, 790.41 287.10 C 794.64 287.10, 794.64 284.42, 798.88 284.42 C 803.11 284.42, 803.11 282.04, 807.34 282.04 C 811.57 282.04, 811.57 279.06, 815.80 279.06 C 820.03 279.06, 820.03 277.05, 824.26 277.05 C 828.50 277.05, 828.50 276.38, 832.73 276.38 C 836.96 276.38, 836.96 274.22, 841.19 274.22 C 845.42 274.22, 845.42 265.36, 849.65 265.36 C 853.88 265.36, 853.88 258.65, 858.12 258.65 C 862.35 258.65, 862.35 252.17, 866.58 252.17 C 870.81 252.17, 870.81 247.86, 875.04 247.86 C 879.27 247.86, 879.27 242.79, 883.50 242.79 C 887.74 242.79, 887.74 241.00, 891.97 241.00 C 896.20 241.00, 896.20 238.40, 900.43 238.40 C 904.66 238.40, 904.66 230.28, 908.89 230.28 C 913.12 230.28, 913.12 221.87, 917.36 221.87 C 921.59 221.87, 921.59 212.71, 925.82 212.71 C 930.05 212.71, 930.05 205.56, 934.28 205.56 C 938.51 205.56, 938.51 196.02, 942.74 196.02 C 946.98 196.02, 946.98 193.12, 951.21 193.12 C 955.44 193.12, 955.44 186.72, 959.67 186.72 C 963.90 186.72, 963.90 177.11, 968.13 177.11 C 972.36 177.11, 972.36 169.22, 976.60 169.22 C 980.83 169.22, 980.83 161.84, 985.06 161.84 C 989.29 161.84, 989.29 155.29, 993.52 155.29 C 997.75 155.29, 997.75 154.02, 1001.98 154.02 C 1006.21 154.02, 1006.21 153.06, 1010.45 153.06 C 1014.68 153.06, 1014.68 151.27, 1018.91 151.27 C 1023.14 151.27, 1023.14 145.68, 1027.37 145.68 C 1031.60 145.68, 1031.60 137.79, 1035.83 137.79 C 1040.07 137.79, 1040.07 131.83, 1044.30 131.83 C 1048.53 131.83, 1048.53 130.94, 1052.76 130.94 C 1056.99 130.94, 1056.99 130.34, 1061.22 130.34 C 1065.45 130.34, 1065.45 129.37, 1069.69 129.37 C 1073.92 129.37, 1073.92 128.63, 1078.15 128.63 C 1082.38 128.63, 1082.38 127.44, 1086.61 127.44 C 1090.84 127.44, 1090.84 126.39, 1095.07 126.39 C 1099.31 126.39, 1099.31 123.19, 1103.54 123.19 C 1107.77 123.19, 1107.77 113.44, 1112.00 113.44" fill="none" stroke="#0F766E" stroke-width="3" stroke-linecap="round" stroke-linejoin="round"/>
  <path d="M 96.46 259.66 C 100.69 259.66, 100.69 230.60, 104.93 230.60 C 109.16 230.60, 109.16 237.06, 113.39 237.06 C 117.62 237.06, 117.62 380.70, 121.85 380.70 C 126.08 380.70, 126.08 353.26, 130.31 353.26 C 134.55 353.26, 134.55 262.88, 138.78 262.88 C 143.01 262.88, 143.01 282.25, 147.24 282.25 C 151.47 282.25, 151.47 277.41, 155.70 277.41 C 159.93 277.41, 159.93 324.21, 164.17 324.21 C 168.40 324.21, 168.40 375.86, 172.63 375.86 C 176.86 375.86, 176.86 379.09, 181.09 379.09 C 185.32 379.09, 185.32 369.40, 189.55 369.40 C 193.79 369.40, 193.79 316.14, 198.02 316.14 C 202.25 316.14, 202.25 332.28, 206.48 332.28 C 210.71 332.28, 210.71 333.90, 214.94 333.90 C 219.17 333.90, 219.17 338.74, 223.40 338.74 C 227.64 338.74, 227.64 361.33, 231.87 361.33 C 236.10 361.33, 236.10 375.86, 240.33 375.86 C 244.56 375.86, 244.56 379.09, 248.79 379.09 C 253.02 379.09, 253.02 364.56, 257.26 364.56 C 261.49 364.56, 261.49 366.18, 265.72 366.18 C 269.95 366.18, 269.95 358.11, 274.18 358.11 C 278.41 358.11, 278.41 379.09, 282.64 379.09 C 286.88 379.09, 286.88 366.18, 291.11 366.18 C 295.34 366.18, 295.34 383.93, 299.57 383.93 C 303.80 383.93, 303.80 375.86, 308.03 375.86 C 312.26 375.86, 312.26 374.25, 316.50 374.25 C 320.73 374.25, 320.73 377.47, 324.96 377.47 C 329.19 377.47, 329.19 369.40, 333.42 369.40 C 337.65 369.40, 337.65 382.32, 341.88 382.32 C 346.12 382.32, 346.12 382.32, 350.35 382.32 C 354.58 382.32, 354.58 383.93, 358.81 383.93 C 363.04 383.93, 363.04 387.16, 367.27 387.16 C 371.50 387.16, 371.50 383.93, 375.74 383.93 C 379.97 383.93, 379.97 385.54, 384.20 385.54 C 388.43 385.54, 388.43 388.77, 392.66 388.77 C 396.89 388.77, 396.89 388.77, 401.12 388.77 C 405.36 388.77, 405.36 383.93, 409.59 383.93 C 413.82 383.93, 413.82 385.54, 418.05 385.54 C 422.28 385.54, 422.28 380.70, 426.51 380.70 C 430.74 380.70, 430.74 387.16, 434.98 387.16 C 439.21 387.16, 439.21 380.70, 443.44 380.70 C 447.67 380.70, 447.67 385.54, 451.90 385.54 C 456.13 385.54, 456.13 379.09, 460.36 379.09 C 464.60 379.09, 464.60 385.54, 468.83 385.54 C 473.06 385.54, 473.06 392.00, 477.29 392.00 C 481.52 392.00, 481.52 390.39, 485.75 390.39 C 489.98 390.39, 489.98 392.00, 494.21 392.00 C 498.45 392.00, 498.45 387.16, 502.68 387.16 C 506.91 387.16, 506.91 385.54, 511.14 385.54 C 515.37 385.54, 515.37 382.32, 519.60 382.32 C 523.83 382.32, 523.83 385.54, 528.07 385.54 C 532.30 385.54, 532.30 383.93, 536.53 383.93 C 540.76 383.93, 540.76 388.77, 544.99 388.77 C 549.22 388.77, 549.22 388.77, 553.45 388.77 C 557.69 388.77, 557.69 383.93, 561.92 383.93 C 566.15 383.93, 566.15 390.39, 570.38 390.39 C 574.61 390.39, 574.61 387.16, 578.84 387.16 C 583.07 387.16, 583.07 385.54, 587.31 385.54 C 591.54 385.54, 591.54 390.39, 595.77 390.39 C 600.00 390.39, 600.00 390.39, 604.23 390.39 C 608.46 390.39, 608.46 392.00, 612.69 392.00 C 616.93 392.00, 616.93 388.77, 621.16 388.77 C 625.39 388.77, 625.39 388.77, 629.62 388.77 C 633.85 388.77, 633.85 380.70, 638.08 380.70 C 642.31 380.70, 642.31 388.77, 646.55 388.77 C 650.78 388.77, 650.78 388.77, 655.01 388.77 C 659.24 388.77, 659.24 388.77, 663.47 388.77 C 667.70 388.77, 667.70 390.39, 671.93 390.39 C 676.17 390.39, 676.17 385.54, 680.40 385.54 C 684.63 385.54, 684.63 387.16, 688.86 387.16 C 693.09 387.16, 693.09 387.16, 697.32 387.16 C 701.55 387.16, 701.55 388.77, 705.79 388.77 C 710.02 388.77, 710.02 379.09, 714.25 379.09 C 718.48 379.09, 718.48 392.00, 722.71 392.00 C 726.94 392.00, 726.94 382.32, 731.17 382.32 C 735.40 382.32, 735.40 382.32, 739.64 382.32 C 743.87 382.32, 743.87 379.09, 748.10 379.09 C 752.33 379.09, 752.33 375.86, 756.56 375.86 C 760.79 375.86, 760.79 382.32, 765.02 382.32 C 769.26 382.32, 769.26 383.93, 773.49 383.93 C 777.72 383.93, 777.72 371.02, 781.95 371.02 C 786.18 371.02, 786.18 319.37, 790.41 319.37 C 794.64 319.37, 794.64 333.90, 798.88 333.90 C 803.11 333.90, 803.11 340.35, 807.34 340.35 C 811.57 340.35, 811.57 327.44, 815.80 327.44 C 820.03 327.44, 820.03 348.42, 824.26 348.42 C 828.50 348.42, 828.50 377.47, 832.73 377.47 C 836.96 377.47, 836.96 345.20, 841.19 345.20 C 845.42 345.20, 845.42 199.94, 849.65 199.94 C 853.88 199.94, 853.88 246.74, 858.12 246.74 C 862.35 246.74, 862.35 251.59, 866.58 251.59 C 870.81 251.59, 870.81 298.39, 875.04 298.39 C 879.27 298.39, 879.27 282.25, 883.50 282.25 C 887.74 282.25, 887.74 353.26, 891.97 353.26 C 896.20 353.26, 896.20 335.51, 900.43 335.51 C 904.66 335.51, 904.66 216.08, 908.89 216.08 C 913.12 216.08, 913.12 209.62, 917.36 209.62 C 921.59 209.62, 921.59 193.48, 925.82 193.48 C 930.05 193.48, 930.05 237.06, 934.28 237.06 C 938.51 237.06, 938.51 185.41, 942.74 185.41 C 946.98 185.41, 946.98 329.06, 951.21 329.06 C 955.44 329.06, 955.44 253.20, 959.67 253.20 C 963.90 253.20, 963.90 183.80, 968.13 183.80 C 972.36 183.80, 972.36 220.92, 976.60 220.92 C 980.83 220.92, 980.83 232.22, 985.06 232.22 C 989.29 232.22, 989.29 249.97, 993.52 249.97 C 997.75 249.97, 997.75 364.56, 1001.98 364.56 C 1006.21 364.56, 1006.21 371.02, 1010.45 371.02 C 1014.68 371.02, 1014.68 353.26, 1018.91 353.26 C 1023.14 353.26, 1023.14 270.95, 1027.37 270.95 C 1031.60 270.95, 1031.60 220.92, 1035.83 220.92 C 1040.07 220.92, 1040.07 262.88, 1044.30 262.88 C 1048.53 262.88, 1048.53 372.63, 1052.76 372.63 C 1056.99 372.63, 1056.99 379.09, 1061.22 379.09 C 1065.45 379.09, 1065.45 371.02, 1069.69 371.02 C 1073.92 371.02, 1073.92 375.86, 1078.15 375.86 C 1082.38 375.86, 1082.38 366.18, 1086.61 366.18 C 1090.84 366.18, 1090.84 369.40, 1095.07 369.40 C 1099.31 369.40, 1099.31 322.60, 1103.54 322.60 C 1107.77 322.60, 1107.77 180.57, 1112.00 180.57" fill="none" stroke="#EA580C" stroke-width="3" stroke-linecap="round" stroke-linejoin="round"/>
  <circle cx="1112" cy="180.57142857142853" r="5" fill="#EA580C" stroke="#FFFFFF" stroke-width="2"/>
  <rect x="1094" y="147.57142857142853" width="36" height="22" rx="3" fill="#FFFFFF" stroke="#EA580C" stroke-width="1"/>
  <text x="1112" y="163.57142857142853" text-anchor="middle" class="value" fill="#EA580C">131</text>
  <circle cx="1112" cy="113.43717214919178" r="4.5" fill="#0F766E" stroke="#FFFFFF" stroke-width="2"/>
  <circle cx="1112" cy="180.57142857142853" r="4.5" fill="#EA580C" stroke="#FFFFFF" stroke-width="2"/>
  <text x="88" y="462" class="subtitle">Latest snapshot</text>
  <text x="188" y="462" class="value" fill="#0F766E">4,683</text>
  <text x="278" y="462" class="subtitle">Daily change</text>
  <text x="373" y="462" class="value" fill="#EA580C">+131</text>
  <text x="468" y="462" class="subtitle">Update date: 2026-10-09</text>
</svg>