<?xml version="1.0" encoding="UTF-8"?>
<svg xmlns="http://www.w3.org/2000/svg" viewBox="0 0 1200 480" role="img" aria-labelledby="title description">
  <title id="title">Analyser User Counts</title>
  <desc id="description">Daily values from 2026-06-10 through 2026-09-26. The teal line uses the left axis and the orange line uses the right axis.</desc>
  <style>
    text { font-family: -apple-system, BlinkMacSystemFont, "Segoe UI", sans-serif; }
    .title { fill: #1E293B; font-size: 23px; font-weight: 700; }
    .subtitle { fill: #64748B; font-size: 13px; }
    .axis-label { fill: #64748B; font-size: 12px; }
    .grid { stroke: #D7DEE5; stroke-width: 1; }
    .week { stroke: #64748B; stroke-width: 1; stroke-dasharray: 4 4; opacity: 0.45; }
    .axis { stroke: #64748B; stroke-width: 1; }
    .legend { fill: #1E293B; font-size: 13px; }
    .value { font-size: 13px; font-weight: 700; }
  </style>
  <rect width="1200" height="480" fill="#FFFFFF"/>
  <text x="88" y="38" class="title">Analyser User Counts</text>
  <text x="88" y="61" class="subtitle">2026-06-10 to 2026-09-26</text>
  <line x1="797" y1="33" x2="821" y2="33" stroke="#0F766E" stroke-width="3" stroke-linecap="round"/>
  <text x="830" y="37" class="legend">Users (left)</text>
  <line x1="977" y1="33" x2="1001" y2="33" stroke="#EA580C" stroke-width="3" stroke-linecap="round"/>
  <text x="1010" y="37" class="legend">Daily change (right)</text>
  <line x1="88" y1="392" x2="1112" y2="392" class="grid"/>
<line x1="88" y1="318" x2="1112" y2="318" class="grid"/>
<line x1="88" y1="244" x2="1112" y2="244" class="grid"/>
<line x1="88" y1="170" x2="1112" y2="170" class="grid"/>
<line x1="88" y1="96" x2="1112" y2="96" class="grid"/>
  <line x1="144.88888888888889" y1="96" x2="144.88888888888889" y2="392" class="week"/>
<line x1="211.25925925925924" y1="96" x2="211.25925925925924" y2="392" class="week"/>
<line x1="277.6296296296296" y1="96" x2="277.6296296296296" y2="392" class="week"/>
<line x1="344" y1="96" x2="344" y2="392" class="week"/>
<line x1="410.3703703703704" y1="96" x2="410.3703703703704" y2="392" class="week"/>
<line x1="476.74074074074076" y1="96" x2="476.74074074074076" y2="392" class="week"/>
<line x1="543.1111111111111" y1="96" x2="543.1111111111111" y2="392" class="week"/>
<line x1="609.4814814814815" y1="96" x2="609.4814814814815" y2="392" class="week"/>
<line x1="675.8518518518518" y1="96" x2="675.8518518518518" y2="392" class="week"/>
<line x1="742.2222222222222" y1="96" x2="742.2222222222222" y2="392" class="week"/>
<line x1="808.5925925925926" y1="96" x2="808.5925925925926" y2="392" class="week"/>
<line x1="874.9629629629629" y1="96" x2="874.9629629629629" y2="392" class="week"/>
<line x1="941.3333333333334" y1="96" x2="941.3333333333334" y2="392" class="week"/>
<line x1="1007.7037037037037" y1="96" x2="1007.7037037037037" y2="392" class="week"/>
<line x1="1074.074074074074" y1="96" x2="1074.074074074074" y2="392" class="week"/>
  <line x1="88" y1="96" x2="88" y2="392" class="axis"/>
  <line x1="1112" y1="96" x2="1112" y2="392" class="axis"/>
  <line x1="88" y1="392" x2="1112" y2="392" class="axis"/>
  <text x="74" y="396" text-anchor="end" class="axis-label">942</text>
<text x="74" y="322" text-anchor="end" class="axis-label">1,793</text>
<text x="74" y="248" text-anchor="end" class="axis-label">2,644</text>
<text x="74" y="174" text-anchor="end" class="axis-label">3,494</text>
<text x="74" y="100" text-anchor="end" class="axis-label">4,345</text>
  <text x="1126" y="396" text-anchor="start" class="axis-label">0</text>
<text x="1126" y="322" text-anchor="start" class="axis-label">45</text>
<text x="1126" y="248" text-anchor="start" class="axis-label">90</text>
<text x="1126" y="174" text-anchor="start" class="axis-label">135</text>
<text x="1126" y="100" text-anchor="start" class="axis-label">181</text>
  <line x1="88" y1="392" x2="88" y2="397" class="axis"/>
      <text x="88" y="419" text-anchor="middle" class="axis-label">06/10</text>
<line x1="296.5925925925926" y1="392" x2="296.5925925925926" y2="397" class="axis"/>
      <text x="296.5925925925926" y="419" text-anchor="middle" class="axis-label">07/02</text>
<line x1="495.7037037037037" y1="392" x2="495.7037037037037" y2="397" class="axis"/>
      <text x="495.7037037037037" y="419" text-anchor="middle" class="axis-label">07/23</text>
<line x1="704.2962962962963" y1="392" x2="704.2962962962963" y2="397" class="axis"/>
      <text x="704.2962962962963" y="419" text-anchor="middle" class="axis-label">08/14</text>
<line x1="903.4074074074074" y1="392" x2="903.4074074074074" y2="397" class="axis"/>
      <text x="903.4074074074074" y="419" text-anchor="middle" class="axis-label">09/04</text>
<line x1="1112" y1="392" x2="1112" y2="397" class="axis"/>
      <text x="1112" y="419" text-anchor="middle" class="axis-label">09/26</text>
  <path d="M 88.00 371.50 C 92.74 371.50, 92.74 364.37, 97.48 364.37 C 102.22 364.37, 102.22 355.67, 106.96 355.67 C 111.70 355.67, 111.70 347.32, 116.44 347.32 C 121.19 347.32, 121.19 346.71, 125.93 346.71 C 130.67 346.71, 130.67 344.62, 135.41 344.62 C 140.15 344.62, 140.15 337.66, 144.89 337.66 C 149.63 337.66, 149.63 331.75, 154.37 331.75 C 159.11 331.75, 159.11 325.57, 163.85 325.57 C 168.59 325.57, 168.59 321.92, 173.33 321.92 C 178.07 321.92, 178.07 321.05, 182.81 321.05 C 187.56 321.05, 187.56 320.35, 192.30 320.35 C 197.04 320.35, 197.04 319.13, 201.78 319.13 C 206.52 319.13, 206.52 315.04, 211.26 315.04 C 216.00 315.04, 216.00 311.83, 220.74 311.83 C 225.48 311.83, 225.48 308.69, 230.22 308.69 C 234.96 308.69, 234.96 305.82, 239.70 305.82 C 244.44 305.82, 244.44 304.17, 249.19 304.17 C 253.93 304.17, 253.93 303.30, 258.67 303.30 C 263.41 303.30, 263.41 302.60, 268.15 302.60 C 272.89 302.60, 272.89 301.13, 277.63 301.13 C 282.37 301.13, 282.37 299.73, 287.11 299.73 C 291.85 299.73, 291.85 297.91, 296.59 297.91 C 301.33 297.91, 301.33 297.21, 306.07 297.21 C 310.81 297.21, 310.81 295.82, 315.56 295.82 C 320.30 295.82, 320.30 295.38, 325.04 295.38 C 329.78 295.38, 329.78 294.51, 334.52 294.51 C 339.26 294.51, 339.26 293.56, 344.00 293.56 C 348.74 293.56, 348.74 292.77, 353.48 292.77 C 358.22 292.77, 358.22 291.56, 362.96 291.56 C 367.70 291.56, 367.70 291.03, 372.44 291.03 C 377.19 291.03, 377.19 290.51, 381.93 290.51 C 386.67 290.51, 386.67 290.08, 391.41 290.08 C 396.15 290.08, 396.15 289.82, 400.89 289.82 C 405.63 289.82, 405.63 289.38, 410.37 289.38 C 415.11 289.38, 415.11 289.03, 419.85 289.03 C 424.59 289.03, 424.59 288.86, 429.33 288.86 C 434.07 288.86, 434.07 288.68, 438.81 288.68 C 443.56 288.68, 443.56 288.25, 448.30 288.25 C 453.04 288.25, 453.04 287.90, 457.78 287.90 C 462.52 287.90, 462.52 287.29, 467.26 287.29 C 472.00 287.29, 472.00 287.03, 476.74 287.03 C 481.48 287.03, 481.48 286.42, 486.22 286.42 C 490.96 286.42, 490.96 286.08, 495.70 286.08 C 500.44 286.08, 500.44 285.38, 505.19 285.38 C 509.93 285.38, 509.93 285.03, 514.67 285.03 C 519.41 285.03, 519.41 285.03, 524.15 285.03 C 528.89 285.03, 528.89 284.94, 533.63 284.94 C 538.37 284.94, 538.37 284.94, 543.11 284.94 C 547.85 284.94, 547.85 284.68, 552.59 284.68 C 557.33 284.68, 557.33 284.34, 562.07 284.34 C 566.81 284.34, 566.81 283.81, 571.56 283.81 C 576.30 283.81, 576.30 283.47, 581.04 283.47 C 585.78 283.47, 585.78 283.03, 590.52 283.03 C 595.26 283.03, 595.26 282.86, 600.00 282.86 C 604.74 282.86, 604.74 282.68, 609.48 282.68 C 614.22 282.68, 614.22 282.25, 618.96 282.25 C 623.70 282.25, 623.70 282.16, 628.44 282.16 C 633.19 282.16, 633.19 281.90, 637.93 281.90 C 642.67 281.90, 642.67 281.55, 647.41 281.55 C 652.15 281.55, 652.15 281.46, 656.89 281.46 C 661.63 281.46, 661.63 281.38, 666.37 281.38 C 671.11 281.38, 671.11 281.38, 675.85 281.38 C 680.59 281.38, 680.59 281.20, 685.33 281.20 C 690.07 281.20, 690.07 281.03, 694.81 281.03 C 699.56 281.03, 699.56 280.42, 704.30 280.42 C 709.04 280.42, 709.04 280.25, 713.78 280.25 C 718.52 280.25, 718.52 280.07, 723.26 280.07 C 728.00 280.07, 728.00 279.90, 732.74 279.90 C 737.48 279.90, 737.48 279.81, 742.22 279.81 C 746.96 279.81, 746.96 279.46, 751.70 279.46 C 756.44 279.46, 756.44 279.20, 761.19 279.20 C 765.93 279.20, 765.93 278.94, 770.67 278.94 C 775.41 278.94, 775.41 278.77, 780.15 278.77 C 784.89 278.77, 784.89 278.07, 789.63 278.07 C 794.37 278.07, 794.37 278.07, 799.11 278.07 C 803.85 278.07, 803.85 277.55, 808.59 277.55 C 813.33 277.55, 813.33 277.03, 818.07 277.03 C 822.81 277.03, 822.81 276.33, 827.56 276.33 C 832.30 276.33, 832.30 275.46, 837.04 275.46 C 841.78 275.46, 841.78 274.94, 846.52 274.94 C 851.26 274.94, 851.26 274.50, 856.00 274.50 C 860.74 274.50, 860.74 273.37, 865.48 273.37 C 870.22 273.37, 870.22 269.46, 874.96 269.46 C 879.70 269.46, 879.70 266.33, 884.44 266.33 C 889.19 266.33, 889.19 263.54, 893.93 263.54 C 898.67 263.54, 898.67 260.06, 903.41 260.06 C 908.15 260.06, 908.15 257.71, 912.89 257.71 C 917.63 257.71, 917.63 256.93, 922.37 256.93 C 927.11 256.93, 927.11 254.41, 931.85 254.41 C 936.59 254.41, 936.59 244.06, 941.33 244.06 C 946.07 244.06, 946.07 236.23, 950.81 236.23 C 955.56 236.23, 955.56 228.66, 960.30 228.66 C 965.04 228.66, 965.04 223.61, 969.78 223.61 C 974.52 223.61, 974.52 217.70, 979.26 217.70 C 984.00 217.70, 984.00 215.61, 988.74 215.61 C 993.48 215.61, 993.48 212.56, 998.22 212.56 C 1002.96 212.56, 1002.96 203.08, 1007.70 203.08 C 1012.44 203.08, 1012.44 193.25, 1017.19 193.25 C 1021.93 193.25, 1021.93 182.55, 1026.67 182.55 C 1031.41 182.55, 1031.41 174.20, 1036.15 174.20 C 1040.89 174.20, 1040.89 163.06, 1045.63 163.06 C 1050.37 163.06, 1050.37 159.67, 1055.11 159.67 C 1059.85 159.67, 1059.85 152.19, 1064.59 152.19 C 1069.33 152.19, 1069.33 140.97, 1074.07 140.97 C 1078.81 140.97, 1078.81 131.75, 1083.56 131.75 C 1088.30 131.75, 1088.30 123.13, 1093.04 123.13 C 1097.78 123.13, 1097.78 115.48, 1102.52 115.48 C 1107.26 115.48, 1107.26 114.00, 1112.00 114.00" fill="none" stroke="#0F766E" stroke-width="3" stroke-linecap="round" stroke-linejoin="round"/>
  <path d="M 97.48 257.60 C 102.22 257.60, 102.22 228.10, 106.96 228.10 C 111.70 228.10, 111.70 234.66, 116.44 234.66 C 121.19 234.66, 121.19 380.53, 125.93 380.53 C 130.67 380.53, 130.67 352.66, 135.41 352.66 C 140.15 352.66, 140.15 260.88, 144.89 260.88 C 149.63 260.88, 149.63 280.55, 154.37 280.55 C 159.11 280.55, 159.11 275.63, 163.85 275.63 C 168.59 275.63, 168.59 323.16, 173.33 323.16 C 178.07 323.16, 178.07 375.61, 182.81 375.61 C 187.56 375.61, 187.56 378.89, 192.30 378.89 C 197.04 378.89, 197.04 369.05, 201.78 369.05 C 206.52 369.05, 206.52 314.97, 211.26 314.97 C 216.00 314.97, 216.00 331.36, 220.74 331.36 C 225.48 331.36, 225.48 333.00, 230.22 333.00 C 234.96 333.00, 234.96 337.91, 239.70 337.91 C 244.44 337.91, 244.44 360.86, 249.19 360.86 C 253.93 360.86, 253.93 375.61, 258.67 375.61 C 263.41 375.61, 263.41 378.89, 268.15 378.89 C 272.89 378.89, 272.89 364.14, 277.63 364.14 C 282.37 364.14, 282.37 365.78, 287.11 365.78 C 291.85 365.78, 291.85 357.58, 296.59 357.58 C 301.33 357.58, 301.33 378.89, 306.07 378.89 C 310.81 378.89, 310.81 365.78, 315.56 365.78 C 320.30 365.78, 320.30 383.81, 325.04 383.81 C 329.78 383.81, 329.78 375.61, 334.52 375.61 C 339.26 375.61, 339.26 373.97, 344.00 373.97 C 348.74 373.97, 348.74 377.25, 353.48 377.25 C 358.22 377.25, 358.22 369.05, 362.96 369.05 C 367.70 369.05, 367.70 382.17, 372.44 382.17 C 377.19 382.17, 377.19 382.17, 381.93 382.17 C 386.67 382.17, 386.67 383.81, 391.41 383.81 C 396.15 383.81, 396.15 387.08, 400.89 387.08 C 405.63 387.08, 405.63 383.81, 410.37 383.81 C 415.11 383.81, 415.11 385.44, 419.85 385.44 C 424.59 385.44, 424.59 388.72, 429.33 388.72 C 434.07 388.72, 434.07 388.72, 438.81 388.72 C 443.56 388.72, 443.56 383.81, 448.30 383.81 C 453.04 383.81, 453.04 385.44, 457.78 385.44 C 462.52 385.44, 462.52 380.53, 467.26 380.53 C 472.00 380.53, 472.00 387.08, 476.74 387.08 C 481.48 387.08, 481.48 380.53, 486.22 380.53 C 490.96 380.53, 490.96 385.44, 495.70 385.44 C 500.44 385.44, 500.44 378.89, 505.19 378.89 C 509.93 378.89, 509.93 385.44, 514.67 385.44 C 519.41 385.44, 519.41 392.00, 524.15 392.00 C 528.89 392.00, 528.89 390.36, 533.63 390.36 C 538.37 390.36, 538.37 392.00, 543.11 392.00 C 547.85 392.00, 547.85 387.08, 552.59 387.08 C 557.33 387.08, 557.33 385.44, 562.07 385.44 C 566.81 385.44, 566.81 382.17, 571.56 382.17 C 576.30 382.17, 576.30 385.44, 581.04 385.44 C 585.78 385.44, 585.78 383.81, 590.52 383.81 C 595.26 383.81, 595.26 388.72, 600.00 388.72 C 604.74 388.72, 604.74 388.72, 609.48 388.72 C 614.22 388.72, 614.22 383.81, 618.96 383.81 C 623.70 383.81, 623.70 390.36, 628.44 390.36 C 633.19 390.36, 633.19 387.08, 637.93 387.08 C 642.67 387.08, 642.67 385.44, 647.41 385.44 C 652.15 385.44, 652.15 390.36, 656.89 390.36 C 661.63 390.36, 661.63 390.36, 666.37 390.36 C 671.11 390.36, 671.11 392.00, 675.85 392.00 C 680.59 392.00, 680.59 388.72, 685.33 388.72 C 690.07 388.72, 690.07 388.72, 694.81 388.72 C 699.56 388.72, 699.56 380.53, 704.30 380.53 C 709.04 380.53, 709.04 388.72, 713.78 388.72 C 718.52 388.72, 718.52 388.72, 723.26 388.72 C 728.00 388.72, 728.00 388.72, 732.74 388.72 C 737.48 388.72, 737.48 390.36, 742.22 390.36 C 746.96 390.36, 746.96 385.44, 751.70 385.44 C 756.44 385.44, 756.44 387.08, 761.19 387.08 C 765.93 387.08, 765.93 387.08, 770.67 387.08 C 775.41 387.08, 775.41 388.72, 780.15 388.72 C 784.89 388.72, 784.89 378.89, 789.63 378.89 C 794.37 378.89, 794.37 392.00, 799.11 392.00 C 803.85 392.00, 803.85 382.17, 808.59 382.17 C 813.33 382.17, 813.33 382.17, 818.07 382.17 C 822.81 382.17, 822.81 378.89, 827.56 378.89 C 832.30 378.89, 832.30 375.61, 837.04 375.61 C 841.78 375.61, 841.78 382.17, 846.52 382.17 C 851.26 382.17, 851.26 383.81, 856.00 383.81 C 860.74 383.81, 860.74 370.69, 865.48 370.69 C 870.22 370.69, 870.22 318.25, 874.96 318.25 C 879.70 318.25, 879.70 333.00, 884.44 333.00 C 889.19 333.00, 889.19 339.55, 893.93 339.55 C 898.67 339.55, 898.67 326.44, 903.41 326.44 C 908.15 326.44, 908.15 347.75, 912.89 347.75 C 917.63 347.75, 917.63 377.25, 922.37 377.25 C 927.11 377.25, 927.11 344.47, 931.85 344.47 C 936.59 344.47, 936.59 196.96, 941.33 196.96 C 946.07 196.96, 946.07 244.49, 950.81 244.49 C 955.56 244.49, 955.56 249.41, 960.30 249.41 C 965.04 249.41, 965.04 296.94, 969.78 296.94 C 974.52 296.94, 974.52 280.55, 979.26 280.55 C 984.00 280.55, 984.00 352.66, 988.74 352.66 C 993.48 352.66, 993.48 334.64, 998.22 334.64 C 1002.96 334.64, 1002.96 213.35, 1007.70 213.35 C 1012.44 213.35, 1012.44 206.80, 1017.19 206.80 C 1021.93 206.80, 1021.93 190.41, 1026.67 190.41 C 1031.41 190.41, 1031.41 234.66, 1036.15 234.66 C 1040.89 234.66, 1040.89 182.21, 1045.63 182.21 C 1050.37 182.21, 1050.37 328.08, 1055.11 328.08 C 1059.85 328.08, 1059.85 251.05, 1064.59 251.05 C 1069.33 251.05, 1069.33 180.57, 1074.07 180.57 C 1078.81 180.57, 1078.81 218.27, 1083.56 218.27 C 1088.30 218.27, 1088.30 229.74, 1093.04 229.74 C 1097.78 229.74, 1097.78 247.77, 1102.52 247.77 C 1107.26 247.77, 1107.26 364.14, 1112.00 364.14" fill="none" stroke="#EA580C" stroke-width="3" stroke-linecap="round" stroke-linejoin="round"/>
  <circle cx="1074.074074074074" cy="180.57142857142856" r="5" fill="#EA580C" stroke="#FFFFFF" stroke-width="2"/>
  <rect x="1056.074074074074" y="147.57142857142856" width="36" height="22" rx="3" fill="#FFFFFF" stroke="#EA580C" stroke-width="1"/>
  <text x="1074.074074074074" y="163.57142857142856" text-anchor="middle" class="value" fill="#EA580C">129</text>
  <circle cx="1112" cy="113.99923585598833" r="4.5" fill="#0F766E" stroke="#FFFFFF" stroke-width="2"/>
  <circle cx="1112" cy="364.1373200442968" r="4.5" fill="#EA580C" stroke="#FFFFFF" stroke-width="2"/>
  <text x="88" y="462" class="subtitle">Latest snapshot</text>
  <text x="188" y="462" class="value" fill="#0F766E">4,138</text>
  <text x="278" y="462" class="subtitle">Daily change</text>
  <text x="373" y="462" class="value" fill="#EA580C">+17</text>
  <text x="468" y="462" class="subtitle">Update date: 2026-09-26</text>
</svg>